<?xml version="1.0" encoding="utf-8"?>
<!-- Generator: Adobe Illustrator 23.1.1, SVG Export Plug-In . SVG Version: 6.00 Build 0)  -->
<svg version="1.1" id="Layer_1" xmlns="http://www.w3.org/2000/svg" xmlns:xlink="http://www.w3.org/1999/xlink" x="0px" y="0px"
	 viewBox="0 0 282 238" style="enable-background:new 0 0 282 238;" xml:space="preserve">
<style type="text/css">
	.st0{fill:#FFFFFF;}
</style>
<g>
	<path class="st0" d="M208.26,107.29c-5.13,5.24-9.02,10.08-13.77,13.85c-7.55,6-10.3,13.06-9.66,22.8
		c0.92,13.93,0.23,27.97,0.23,41.96c0,1.74,0,3.47,0,5.11c-44.55,0-88.28,0-132.08,0c0-32.76,0-65.12,0-97.94c2.22,0,4.02,0,5.82,0
		c26.49,0,52.97,0.02,79.46-0.04c1.74,0,4.03-0.03,5.12-1.06c7.33-6.9,14.41-14.08,22.36-21.95c-2.68-0.14-4.1-0.27-5.53-0.27
		c-36.48-0.01-72.96-0.02-109.45,0c-13.3,0.01-21.7,8.51-21.7,21.91c-0.01,33.32,0.41,66.64-0.2,99.95
		c-0.25,13.65,9.49,23.73,23.52,23.61c44.31-0.4,88.62-0.13,132.93-0.16c14.96-0.01,23.23-8.25,23.24-23.14
		c0.03-26.15,0.01-52.31,0-78.46C208.55,111.87,208.4,110.26,208.26,107.29z M194.17,56.04c0.21,0.37,0.42,0.73,0.64,1.1
		c-24.4,24.4-48.81,48.79-72.76,72.74c8.09,8.1,15.95,15.97,24.41,24.44c24.15-24.16,48.57-48.59,73.72-73.75
		c0,25.32,0,49.79,0,75.46c10.41-10.44,19.84-20.04,29.48-29.44c2.46-2.39,3.51-4.78,3.49-8.25c-0.13-29.99-0.08-59.99-0.08-89.98
		c0-1.77,0-3.53,0-5.23c-1.15-0.2-1.63-0.35-2.11-0.35c-31.66-0.02-63.32-0.07-94.98,0.07c-1.86,0.01-4.09,1.24-5.49,2.59
		c-7.44,7.16-14.63,14.58-21.99,21.83c-2.64,2.6-5.51,4.98-8.27,7.46c0.28,0.43,0.56,0.86,0.85,1.28
		C145.44,56.04,169.81,56.04,194.17,56.04z"/>
	<path d="M208.26,107.29c0.15,2.97,0.3,4.58,0.3,6.18c0.01,26.15,0.03,52.31,0,78.46c-0.01,14.89-8.28,23.13-23.24,23.14
		c-44.31,0.02-88.63-0.25-132.93,0.16c-14.03,0.13-23.77-9.96-23.52-23.61c0.62-33.31,0.2-66.63,0.2-99.95
		c0-13.4,8.4-21.91,21.7-21.91c36.48-0.02,72.96-0.01,109.45,0c1.42,0,2.85,0.14,5.53,0.27c-7.95,7.87-15.03,15.04-22.36,21.95
		c-1.09,1.02-3.38,1.05-5.12,1.06c-26.49,0.06-52.97,0.04-79.46,0.04c-1.8,0-3.6,0-5.82,0c0,32.82,0,65.18,0,97.94
		c43.8,0,87.53,0,132.08,0c0-1.64,0-3.38,0-5.11c0-13.99,0.68-28.03-0.23-41.96c-0.64-9.74,2.11-16.8,9.66-22.8
		C199.23,117.37,203.12,112.53,208.26,107.29z"/>
	<path d="M194.17,56.04c-24.37,0-48.74,0-73.1,0c-0.28-0.43-0.56-0.86-0.85-1.28c2.76-2.48,5.63-4.86,8.27-7.46
		c7.36-7.25,14.55-14.67,21.99-21.83c1.4-1.35,3.64-2.58,5.49-2.59c31.66-0.15,63.32-0.1,94.98-0.07c0.48,0,0.96,0.15,2.11,0.35
		c0,1.69,0,3.46,0,5.23c0,29.99-0.06,59.99,0.08,89.98c0.02,3.47-1.03,5.85-3.49,8.25c-9.64,9.39-19.06,19-29.48,29.44
		c0-25.67,0-50.14,0-75.46c-25.15,25.16-49.57,49.59-73.72,73.75c-8.46-8.47-16.32-16.35-24.41-24.44
		C146,105.96,170.4,81.56,194.8,57.17C194.6,56.77,194.39,56.4,194.17,56.04z"/>
</g>
</svg>
